# xmcd CD database file
#
# Track frame offsets:
#	150
#	18967
#	36780
#	60139
#	78620
#	110147
#	133770
#	154027
#	162297
#	181205
#	195665
#
# Disc length: 3214 seconds
#
# Revision: 0
# Processed by: cddbd v1.5.2PL0 Copyright (c) Steve Scherf et al.
# Submitted via: CDex 1.82
#
DISCID=870c8c0b
DTITLE=Taxi Chain - Sadness and the Good Doctor
DYEAR=2007
DGENRE=Blues
TTITLE0=If I Had a Boat
TTITLE1=Girlfriend Said...
TTITLE2=Watch TV
TTITLE3=Mrs. MacLeod's Daughter
TTITLE4=Yippee Yi Yae
TTITLE5=Trailer Park
TTITLE6=Up on Blocks
TTITLE7=Mortley's Medicine
TTITLE8=Bus
TTITLE9=Funk Bummer
TTITLE10=I'm Okay Now
EXTD=YEAR: 2007
EXTT0=
EXTT1=
EXTT2=
EXTT3=
EXTT4=
EXTT5=
EXTT6=
EXTT7=
EXTT8=
EXTT9=
EXTT10=
PLAYORDER=
